<svg width="50" height="50" viewBox="0 0 50 50" fill="none" xmlns="http://www.w3.org/2000/svg">
<path d="M42.5782 23.1445H14.0089L31.1085 8.30078C31.3819 8.06152 31.2159 7.61719 30.8546 7.61719H26.5333C26.3428 7.61719 26.1622 7.68555 26.0206 7.80762L7.56842 23.8184C7.39942 23.9649 7.26389 24.146 7.171 24.3494C7.0781 24.5529 7.03003 24.7739 7.03003 24.9976C7.03003 25.2212 7.0781 25.4423 7.171 25.6457C7.26389 25.8492 7.39942 26.0303 7.56842 26.1768L26.128 42.2852C26.2012 42.3486 26.2891 42.3828 26.3819 42.3828H30.8497C31.211 42.3828 31.377 41.9336 31.1036 41.6992L14.0089 26.8555H42.5782C42.793 26.8555 42.9688 26.6797 42.9688 26.4648V23.5352C42.9688 23.3203 42.793 23.1445 42.5782 23.1445Z" fill="#222222"/>
</svg>
