<svg width="50" height="50" viewBox="0 0 50 50" fill="none" xmlns="http://www.w3.org/2000/svg">
<g clip-path="url(#clip0_16_10)">
<path d="M36.6939 32.325C39.7198 28.1959 41.0751 23.0765 40.4886 17.9911C39.9021 12.9057 37.417 8.22919 33.5306 4.89729C29.6442 1.56539 24.6431 -0.17623 19.5277 0.0208736C14.4124 0.217977 9.56007 2.33927 5.94158 5.96034C2.32309 9.58142 0.205278 14.4352 0.0118349 19.5507C-0.181608 24.6662 1.56359 29.6661 4.89827 33.5501C8.23295 37.4342 12.9112 39.9159 17.9971 40.4987C23.0829 41.0816 28.2013 39.7226 32.3282 36.6938H32.3251C32.4189 36.8188 32.5189 36.9375 32.6314 37.0531L44.6626 49.0844C45.2486 49.6708 46.0435 50.0003 46.8725 50.0006C47.7014 50.0009 48.4966 49.6719 49.0829 49.0859C49.6693 48.5 49.9989 47.7051 49.9992 46.8761C49.9995 46.0471 49.6705 45.252 49.0845 44.6656L37.0532 32.6344C36.9415 32.5213 36.8214 32.4168 36.6939 32.3219V32.325ZM37.5001 20.3125C37.5001 22.5696 37.0556 24.8046 36.1918 26.8899C35.328 28.9752 34.062 30.8699 32.466 32.4659C30.87 34.0619 28.9753 35.3279 26.89 36.1917C24.8047 37.0554 22.5697 37.5 20.3126 37.5C18.0555 37.5 15.8205 37.0554 13.7352 36.1917C11.65 35.3279 9.75523 34.0619 8.15922 32.4659C6.56322 30.8699 5.29719 28.9752 4.43344 26.8899C3.56969 24.8046 3.12512 22.5696 3.12512 20.3125C3.12512 15.7541 4.93594 11.3824 8.15922 8.15911C11.3825 4.93583 15.7542 3.12501 20.3126 3.12501C24.871 3.12501 29.2427 4.93583 32.466 8.15911C35.6893 11.3824 37.5001 15.7541 37.5001 20.3125V20.3125Z" fill="#222222"/>
</g>
<defs>
<clipPath id="clip0_16_10">
<rect width="50" height="50" fill="white"/>
</clipPath>
</defs>
</svg>
